<svg xmlns="http://www.w3.org/2000/svg" width="16" height="15" viewBox="0 0 16 15"><defs><style>.cls-1 { fill-rule: evenodd; }</style></defs><path class="cls-1" d="M15.94 0a.167.167 0 0 0-.18-.01L.08 7.94a.156.156 0 0 0-.08.15.15.15 0 0 0 .11.14L5.07 9.8a.2.2 0 0 0 .16-.04l7.54-6.39-5.79 6.8a.14.14 0 0 0-.03.15.157.157 0 0 0 .1.11l5.83 1.76h.04a.188.188 0 0 0 .08-.02.16.16 0 0 0 .08-.1L15.99.17a.177.177 0 0 0-.05-.17zM8.76 12.16l-1.61-.49a.206.206 0 0 0-.15.03.16.16 0 0 0-.06.13v3.01a.16.16 0 0 0 .12.15.06.06 0 0 0 .04.01.172.172 0 0 0 .14-.08l1.61-2.52a.17.17 0 0 0 .01-.14.165.165 0 0 0-.1-.1z"/></svg>