<svg xmlns="http://www.w3.org/2000/svg" width="11.657" height="16" viewBox="0 0 11.657 16"><defs><style>.cls-1 { fill-rule: evenodd; }</style></defs><path class="cls-1" d="M11.564 13.99L8.5 5.7V3.26a1.477 1.477 0 0 0 .993-1.39v-.4A1.476 1.476 0 0 0 8.013 0h-4.37a1.477 1.477 0 0 0-1.478 1.47v.4a1.475 1.475 0 0 0 1 1.39V5.7l-3.06 8.27A1.473 1.473 0 0 0 1.476 16H10.2a1.47 1.47 0 0 0 1.227-.65 1.452 1.452 0 0 0 .14-1.36zm-8.11-1.88a.5.5 0 1 1 .5.5.5.5 0 0 1-.5-.5zm3.25.44a.865.865 0 1 1-.872.86.862.862 0 0 1 .87-.86zm-.743-1.9a.628.628 0 1 1 .63.62.628.628 0 0 1-.63-.62zM4.134 5.87v-3.5h-.49a.5.5 0 0 1-.5-.5v-.4a.5.5 0 0 1 .5-.5H8.02a.5.5 0 0 1 .5.5v.4a.506.506 0 0 1-.5.5h-.49v3.5l.858 2.32-.034.03c-.64.66-5.308.74-5.308.74H3zm1.353 1.87a.675.675 0 1 0-.682-.67.676.676 0 0 0 .682.67z"/></svg>