<svg xmlns="http://www.w3.org/2000/svg" width="16" height="16" viewBox="0 0 16 16"><defs><style>.cls-1 { fill-rule: evenodd; }</style></defs><path class="cls-1" d="M14.663 4H8.987l2.24-2.69a.375.375 0 0 0 .1.02.665.665 0 1 0-.668-.66.617.617 0 0 0 .045.22L8.115 4h-.243L5.282.89A.64.64 0 0 0 5.33.67a.667.667 0 1 0-.667.66.37.37 0 0 0 .1-.02L7 4H1.324A1.334 1.334 0 0 0-.008 5.33v9.34A1.328 1.328 0 0 0 1.324 16h13.33a1.328 1.328 0 0 0 1.334-1.33V5.33A1.335 1.335 0 0 0 14.663 4zM12 13.34a1.335 1.335 0 0 1-1.334 1.33h-8a1.335 1.335 0 0 1-1.334-1.33V6.67a1.338 1.338 0 0 1 1.334-1.34h8A1.337 1.337 0 0 1 12 6.67v6.67zm1.964-5.96a.955.955 0 1 1 .95-.96.956.956 0 0 1-.953.96z"/></svg>